<?xml version="1.0" encoding="UTF-8"?>
<svg version="1.1" xmlns="http://www.w3.org/2000/svg" width="512" height="512">
<path d="M0 0 C0.82465732 -0.00694553 1.64931463 -0.01389106 2.49896157 -0.02104706 C5.24260009 -0.03923917 7.98536626 -0.02907469 10.72903442 -0.01878357 C12.70411828 -0.02584604 14.67919673 -0.03459243 16.65426636 -0.04489136 C22.00562205 -0.06735958 27.35668161 -0.06445133 32.70806646 -0.05556989 C37.18113647 -0.05045285 41.65415119 -0.05775848 46.1272155 -0.06504196 C56.68301438 -0.08203324 67.23866867 -0.07848331 77.79446411 -0.06175232 C88.67135741 -0.04483489 99.54784926 -0.06066227 110.42469871 -0.0929752 C119.77528753 -0.11969788 129.12575159 -0.12693975 138.47637475 -0.11846012 C144.05574015 -0.11353837 149.63486411 -0.11570586 155.21419907 -0.13624763 C160.46257908 -0.15464643 165.71038325 -0.14859446 170.9587326 -0.12404823 C172.87992951 -0.11905353 174.8011706 -0.12249511 176.722332 -0.13519669 C196.02354625 -0.2526653 196.02354625 -0.2526653 203.43655396 5.5146637 C211.10791343 13.38955077 210.73721925 23.43229828 210.75540161 33.81544495 C210.76544724 35.13334518 210.77549286 36.45124542 210.7858429 37.80908203 C210.81300711 41.40145676 210.82825171 44.99379258 210.84127092 48.58624268 C210.85696129 52.34856092 210.8837325 56.11080039 210.90930176 59.87306213 C210.95598542 66.98783377 210.99277973 74.10262039 211.02597463 81.21746635 C211.06426984 89.32153684 211.11366049 97.42552799 211.16395879 105.52953148 C211.26712367 122.19118515 211.35643401 138.85288293 211.43655396 155.5146637 C212.17518677 155.11634338 212.91381958 154.71802307 213.67483521 154.30763245 C225.78661168 147.98242262 235.72901704 146.06229629 249.34036255 146.11061096 C250.80856339 146.10489579 252.2767598 146.09792713 253.74494934 146.08981323 C257.70172123 146.07199224 261.65827002 146.07302928 265.61506987 146.07875562 C268.93232561 146.0818639 272.24953951 146.07573684 275.56678927 146.06971687 C283.40004109 146.05570926 291.23318376 146.05720116 299.06643677 146.06861877 C307.11618902 146.08009352 315.16560784 146.06602663 323.21531618 146.0392223 C330.15583478 146.01698668 337.09624933 146.01044563 344.03680098 146.01629871 C348.16918088 146.0196511 352.3013472 146.01736883 356.43369675 146.00004768 C360.3228883 145.98445468 364.21159025 145.98866896 368.10076332 146.00735283 C369.51758679 146.011005 370.93444755 146.00803026 372.35123634 145.99746704 C389.85784902 145.8770359 405.47684489 151.55736307 418.43655396 163.5146637 C425.07667871 170.42784031 429.9449726 178.60754857 433.43655396 187.5146637 C433.69944214 188.16699982 433.96233032 188.81933594 434.23318481 189.49143982 C437.6545886 199.73226998 436.8093455 210.59049591 436.72952271 221.24513245 C436.72391957 223.44901235 436.71965287 225.65289601 436.71665955 227.85678101 C436.70526729 233.62549868 436.67584892 239.39398567 436.64254761 245.16261292 C436.61172502 251.06183249 436.59812826 256.96108974 436.58303833 262.86036682 C436.55097347 274.41189983 436.49984577 285.9632625 436.43655396 297.5146637 C438.05497192 297.4832428 438.05497192 297.4832428 439.70608521 297.45118713 C443.73898864 297.37835946 447.77183485 297.33270986 451.8052063 297.29493713 C453.54521485 297.27491848 455.28515695 297.24769484 457.02493286 297.21290588 C459.53730741 297.16395417 462.04878671 297.14159782 464.56155396 297.1240387 C465.32959351 297.10339355 466.09763306 297.08274841 466.88894653 297.06147766 C473.08780532 297.05894738 478.41797124 298.65707676 483.00320435 302.99775696 C486.73580316 307.29822265 487.56010795 310.50930496 487.58372498 316.06060791 C487.59445793 317.79118187 487.59445793 317.79118187 487.60540771 319.55671692 C487.60944107 321.45728851 487.60944107 321.45728851 487.61355591 323.39625549 C487.61982207 324.74330826 487.62646901 326.0903593 487.63346863 327.43740845 C487.6544967 331.86288757 487.66487118 336.28836698 487.67483521 340.71388245 C487.6788835 342.23888988 487.68300045 343.76389713 487.68718529 345.28890419 C487.70623576 352.45539571 487.72046598 359.62187694 487.72879726 366.78838891 C487.73856363 375.05236386 487.76486787 383.31607053 487.80529815 391.57995099 C487.83549595 397.97244257 487.85026967 404.36485742 487.85357827 410.75741893 C487.85592498 414.5728943 487.86483527 418.38808302 487.89003944 422.20348167 C487.91338909 425.79622139 487.91752614 429.38848714 487.90727806 432.98128319 C487.90654979 434.91921941 487.92559342 436.85713193 487.94534302 438.79496765 C487.89796902 446.76235262 487.04749608 452.33017147 481.69046021 458.5381012 C481.13229614 458.98411682 480.57413208 459.43013245 479.99905396 459.8896637 C479.44346802 460.35114807 478.88788208 460.81263245 478.31546021 461.2881012 C474.09949587 464.04031076 470.44791429 464.76310635 465.45291138 464.74171448 C463.68164131 464.74148788 463.68164131 464.74148788 461.87458801 464.74125671 C459.97746819 464.72577286 459.97746819 464.72577286 458.04202271 464.7099762 C456.08828484 464.70573135 456.08828484 464.70573135 454.09507751 464.70140076 C450.64433011 464.69379066 447.19375297 464.67416504 443.74307251 464.6519928 C440.21709496 464.63147758 436.6910897 464.62238694 433.16506958 464.61231995 C426.25549475 464.59091642 419.34603254 464.55681244 412.43655396 464.5146637 C412.68937134 465.40661438 412.94218872 466.29856506 413.20266724 467.21754456 C414.13999833 470.56245768 415.05821649 473.9114771 415.96438599 477.26490784 C416.35865748 478.7090118 416.76021533 480.15114857 417.16946411 481.59107971 C421.4117009 496.55300286 421.4117009 496.55300286 418.43655396 504.5146637 C416.51912858 507.70848557 414.36063498 509.96521011 411.12405396 511.8896637 C406.04512057 513.070811 402.03239326 513.09775883 397.18655396 511.3271637 C391.46134622 507.55373132 389.61771928 502.90147833 387.99905396 496.4521637 C387.79514038 495.67937073 387.59122681 494.90657776 387.38113403 494.11036682 C386.71894271 491.58186213 386.07680792 489.04880585 385.43655396 486.5146637 C384.96014004 484.6617609 384.48357562 482.8088968 384.00686646 480.95606995 C383.11487685 477.45672611 382.22550375 473.95680045 381.35452271 470.4521637 C381.17687378 469.73931213 380.99922485 469.02646057 380.81619263 468.29200745 C380.43655396 466.5146637 380.43655396 466.5146637 380.43655396 464.5146637 C338.52655396 464.5146637 296.61655396 464.5146637 253.43655396 464.5146637 C252.77655396 467.8146637 252.11655396 471.1146637 251.43655396 474.5146637 C250.24784385 479.2940669 248.90329637 484.02616818 247.56155396 488.7646637 C247.22253052 490.00474182 246.88350708 491.24481995 246.53421021 492.5224762 C242.32617612 507.40259674 242.32617612 507.40259674 236.18655396 510.8896637 C232.08835778 512.98702748 228.99917862 513.02162199 224.43655396 512.5146637 C219.29768783 510.70094624 216.39477587 508.07877751 213.43655396 503.5146637 C212.43655396 494.5146637 212.43655396 494.5146637 219.43655396 465.5146637 C199.30655396 465.5146637 179.17655396 465.5146637 158.43655396 465.5146637 C160.74655396 475.0846637 163.05655396 484.6546637 165.43655396 494.5146637 C164.20947187 505.55840246 164.20947187 505.55840246 158.43655396 510.5146637 C154.42300901 512.94391458 150.02976547 513.213251 145.43655396 512.5146637 C139.92027769 510.54935069 137.4280544 507.53692722 134.43655396 502.5146637 C133.43065908 499.76574065 132.74602422 496.97150465 132.07717896 494.1240387 C131.78602203 492.94530182 131.78602203 492.94530182 131.48898315 491.74275208 C130.87705326 489.25261904 130.28189026 486.75880949 129.68655396 484.2646637 C129.27222503 482.57430534 128.8568704 480.88419805 128.44046021 479.1943512 C125.43655396 466.90853681 125.43655396 466.90853681 125.43655396 464.5146637 C103.98655396 464.8446637 82.53655396 465.1746637 60.43655396 465.5146637 C57.31331853 477.41793001 57.31331853 477.41793001 54.21487427 489.32765198 C53.81569829 490.83032986 53.41568795 492.33278644 53.01467896 493.8349762 C52.81922485 494.60317688 52.62377075 495.37137756 52.4223938 496.16285706 C50.95771576 501.58985624 49.10106501 506.14198004 44.79592896 509.9756012 C40.11760842 512.63270558 36.81201728 513.1119374 31.43655396 512.5146637 C26.55825047 510.79290952 22.95466005 508.07548683 20.43655396 503.5146637 C18.52231749 495.04109402 20.71253086 487.70313897 22.87405396 479.4521637 C23.217251 478.09639757 23.55905944 476.74027915 23.89944458 475.38380432 C24.73159199 472.09037585 25.57758211 468.80117853 26.43655396 465.5146637 C24.81813599 465.50850037 24.81813599 465.50850037 23.16702271 465.50221252 C19.13350772 465.48030977 15.10095289 465.42590664 11.06790161 465.36207581 C9.32808693 465.33899235 7.58813443 465.32452289 5.84817505 465.31910706 C3.33510407 465.30974605 0.82417194 465.26860502 -1.68844604 465.22169495 C-2.84050537 465.22759392 -2.84050537 465.22759392 -4.01583862 465.23361206 C-9.95135245 465.07609029 -13.91924571 463.18330188 -18.56344604 459.5146637 C-23.49630941 454.19236375 -24.81314778 450.49727829 -24.81792164 443.24567604 C-24.82112812 442.50841569 -24.82433459 441.77115534 -24.82763824 441.01155376 C-24.83597581 438.52753704 -24.83000089 436.04375907 -24.82414246 433.55973816 C-24.82716143 431.76627231 -24.83104963 429.97280775 -24.83573502 428.17934549 C-24.84605658 423.24025991 -24.84382266 418.30124658 -24.83955443 413.36215496 C-24.83709471 408.03962601 -24.84609197 402.7171148 -24.85359192 397.39459229 C-24.86636212 386.96294423 -24.86812971 376.53132188 -24.86579166 366.09966733 C-24.86401088 357.62297959 -24.86575295 349.14629968 -24.8700161 340.66961288 C-24.87061129 339.46460504 -24.87120648 338.2595972 -24.8718197 337.01807397 C-24.87303141 334.57033949 -24.87424555 332.12260501 -24.87546208 329.67487054 C-24.88634661 306.70320734 -24.88417083 283.7315588 -24.87807723 260.75989477 C-24.87290755 239.73180667 -24.88416326 218.70376489 -24.90317545 197.67568596 C-24.92253448 176.09906918 -24.93081324 154.52247434 -24.9270522 132.94584882 C-24.92513717 120.82622019 -24.92765697 108.70663099 -24.94176674 96.58700943 C-24.95365689 86.26923867 -24.95511209 75.95153159 -24.94297657 65.63375999 C-24.93707116 60.36725449 -24.93603421 55.10086562 -24.94797897 49.83436775 C-24.95878135 45.01563712 -24.95580206 40.1971213 -24.94171729 35.37840097 C-24.93905472 33.63279961 -24.94148546 31.88718172 -24.94945315 30.14159651 C-24.95951805 27.77258116 -24.95117294 25.40431844 -24.93817616 23.03533363 C-24.93823117 21.7183535 -24.93828619 20.40137336 -24.93834287 19.04448473 C-24.2622611 12.67887288 -21.381912 8.5835905 -16.56344604 4.5146637 C-11.06095121 1.03860327 -6.44544903 -0.07027269 0 0 Z " fill="#FCD599" transform="translate(24.563446044921875,-0.5146636962890625)"/>
<path d="M0 0 C1.46775654 -0.00599262 2.93550995 -0.01279985 4.40325928 -0.02035522 C8.37255712 -0.03795054 12.3417686 -0.04270794 16.31110168 -0.0439868 C18.79709938 -0.04541295 21.28307545 -0.04969136 23.76906776 -0.05498123 C32.45950324 -0.07346208 41.14987755 -0.08165453 49.84033203 -0.08007812 C57.91216127 -0.07887815 65.98372251 -0.09995709 74.055484 -0.13156545 C81.00866985 -0.15781297 87.96176865 -0.16844184 94.9150036 -0.16716731 C99.05750328 -0.16666004 103.19976472 -0.17221157 107.34221458 -0.19352341 C111.24365686 -0.21304872 115.14463715 -0.21293406 119.0460968 -0.19849014 C120.46776323 -0.19641832 121.88945968 -0.20100443 123.31107521 -0.21321106 C140.83771237 -0.35380292 156.46166203 5.31902112 169.43676758 17.29052734 C176.07689233 24.20370396 180.94518623 32.38341222 184.43676758 41.29052734 C184.69965576 41.94286346 184.96254395 42.59519958 185.23339844 43.26730347 C188.65480222 53.50813363 187.80955912 64.36635956 187.72973633 75.02099609 C187.72413319 77.224876 187.71986649 79.42875966 187.71687317 81.63264465 C187.70548091 87.40136232 187.67606254 93.16984932 187.64276123 98.93847656 C187.61193864 104.83769613 187.59834189 110.73695339 187.58325195 116.63623047 C187.55118709 128.18776348 187.50005939 139.73912614 187.43676758 151.29052734 C188.51571289 151.26958008 189.5946582 151.24863281 190.70629883 151.22705078 C194.73920226 151.15422311 198.77204848 151.10857351 202.80541992 151.07080078 C204.54542847 151.05078213 206.28537057 151.02355849 208.02514648 150.98876953 C210.53752103 150.93981782 213.04900033 150.91746147 215.56176758 150.89990234 C216.32980713 150.8792572 217.09784668 150.85861206 217.88916016 150.83734131 C224.08801895 150.83481102 229.41818486 152.43294041 234.00341797 156.77362061 C237.73601678 161.0740863 238.56032157 164.28516861 238.5839386 169.83647156 C238.59467155 171.56704552 238.59467155 171.56704552 238.60562134 173.33258057 C238.60831024 174.5996283 238.61099915 175.86667603 238.61376953 177.17211914 C238.6200357 178.5191719 238.62668263 179.86622294 238.63368225 181.21327209 C238.65471033 185.63875121 238.6650848 190.06423062 238.67504883 194.48974609 C238.67909713 196.01475352 238.68321407 197.53976078 238.68739891 199.06476784 C238.70644938 206.23125935 238.7206796 213.39774059 238.72901088 220.56425256 C238.73877726 228.82822751 238.7650815 237.09193418 238.80551177 245.35581464 C238.83570958 251.74830622 238.8504833 258.14072107 238.85379189 264.53328258 C238.8561386 268.34875795 238.86504889 272.16394667 238.89025307 275.97934532 C238.91360271 279.57208504 238.91773976 283.16435079 238.90749168 286.75714684 C238.90676341 288.69508306 238.92580705 290.63299558 238.94555664 292.5708313 C238.89818265 300.53821627 238.04770971 306.10603512 232.69067383 312.31396484 C232.13250977 312.75998047 231.5743457 313.20599609 230.99926758 313.66552734 C230.44368164 314.12701172 229.8880957 314.58849609 229.31567383 315.06396484 C225.0997095 317.81617441 221.44812791 318.53897 216.453125 318.51757812 C214.68185493 318.51735153 214.68185493 318.51735153 212.87480164 318.51712036 C210.97768181 318.50163651 210.97768181 318.50163651 209.04223633 318.48583984 C207.08849846 318.481595 207.08849846 318.481595 205.09529114 318.4772644 C201.64454373 318.46965431 198.1939666 318.45002869 194.74328613 318.42785645 C191.21730858 318.40734122 187.69130333 318.39825059 184.1652832 318.38818359 C177.25570837 318.36678007 170.34624617 318.33267609 163.43676758 318.29052734 C163.68958496 319.18247803 163.94240234 320.07442871 164.20288086 320.9934082 C165.14021196 324.33832133 166.05843011 327.68734074 166.96459961 331.04077148 C167.3588711 332.48487545 167.76042896 333.92701221 168.16967773 335.36694336 C172.41191452 350.32886651 172.41191452 350.32886651 169.43676758 358.29052734 C167.5193422 361.48434921 165.36084861 363.74107376 162.12426758 365.66552734 C157.04533419 366.84667464 153.03260688 366.87362247 148.18676758 365.10302734 C142.46155984 361.32959497 140.6179329 356.67734198 138.99926758 350.22802734 C138.795354 349.45523437 138.59144043 348.68244141 138.38134766 347.88623047 C137.71915633 345.35772577 137.07702154 342.8246695 136.43676758 340.29052734 C135.96035367 338.43762455 135.48378924 336.58476045 135.00708008 334.73193359 C134.11509047 331.23258976 133.22571737 327.73266409 132.35473633 324.22802734 C132.08826294 323.15875 132.08826294 323.15875 131.81640625 322.06787109 C131.43676758 320.29052734 131.43676758 320.29052734 131.43676758 318.29052734 C89.52676758 318.29052734 47.61676758 318.29052734 4.43676758 318.29052734 C3.77676758 321.59052734 3.11676758 324.89052734 2.43676758 328.29052734 C1.24805748 333.06993054 -0.09649001 337.80203183 -1.43823242 342.54052734 C-1.77725586 343.78060547 -2.1162793 345.02068359 -2.46557617 346.29833984 C-6.67361026 361.17846039 -6.67361026 361.17846039 -12.81323242 364.66552734 C-16.9114286 366.76289112 -20.00060776 366.79748564 -24.56323242 366.29052734 C-29.44153591 364.56877317 -33.04512632 361.85135048 -35.56323242 357.29052734 C-37.47746889 348.81695767 -35.28725552 341.47900261 -33.12573242 333.22802734 C-32.78253538 331.87226122 -32.44072694 330.51614279 -32.1003418 329.15966797 C-31.26819439 325.86623949 -30.42220427 322.57704218 -29.56323242 319.29052734 C-30.84537125 319.28838982 -30.84537125 319.28838982 -32.15341187 319.28620911 C-40.24444571 319.2683126 -48.3349373 319.22650316 -56.42571068 319.15843678 C-60.58441628 319.12427743 -64.74275885 319.09907416 -68.90161133 319.0949707 C-72.92200514 319.09066379 -76.94158156 319.06200564 -80.96171951 319.01709557 C-82.48850349 319.00419638 -84.01538568 318.99978578 -85.54221725 319.00437355 C-95.23595391 319.0266982 -103.44723247 318.3971861 -111.16342163 311.954422 C-117.95640822 304.77242101 -117.9685577 295.62109075 -117.73510742 286.33349609 C-117.53572209 280.96926372 -117.12936062 275.62830749 -116.56323242 270.29052734 C-114.64702504 269.87175355 -112.73021745 269.45572686 -110.81323242 269.04052734 C-109.5525293 268.76466797 -108.29182617 268.48880859 -106.99291992 268.20458984 C-103.77959135 267.52118556 -100.55884971 266.93202261 -97.32104492 266.37646484 C-96.42998047 266.21694336 -95.53891602 266.05742187 -94.62084961 265.89306641 C-92.8561482 265.57892771 -91.08848535 265.28092335 -89.31811523 265.00048828 C-85.52012288 264.30844953 -83.09186169 263.7040257 -80.01635742 261.29833984 C-76.64164373 254.31304538 -77.44322299 244.83640423 -78.56323242 237.29052734 C-80.01717232 233.42398616 -81.64098315 231.20257679 -84.56323242 228.29052734 C-85.65736395 227.10305758 -86.74674666 225.91120411 -87.83276367 224.71630859 C-90.27313632 222.05015279 -92.740119 219.41344145 -95.23510742 216.79833984 C-98.19071288 213.69740351 -101.07218612 210.56102276 -103.76635742 207.22802734 C-105.61349937 205.11787653 -105.61349937 205.11787653 -108.42260742 203.16552734 C-113.12828171 199.42217389 -116.08312749 196.11790583 -117.11791992 190.02392578 C-119.01915299 165.622627 -119.01915299 165.622627 -112.56323242 157.29052734 C-110.74682617 155.54833984 -110.74682617 155.54833984 -109.00073242 154.41552734 C-108.42194336 154.02623047 -107.8431543 153.63693359 -107.24682617 153.23583984 C-103.14305227 150.93163269 -99.16762299 151.16153857 -94.61401367 151.19287109 C-93.84139694 151.19428604 -93.06878021 151.19570099 -92.27275085 151.19715881 C-89.80703853 151.20275268 -87.34141727 151.21530402 -84.87573242 151.22802734 C-83.20320769 151.23304314 -81.53068154 151.23760591 -79.8581543 151.24169922 C-75.75981196 151.2527201 -71.66153763 151.2699805 -67.56323242 151.29052734 C-67.56989426 150.14175613 -67.57655609 148.99298492 -67.5834198 147.80940247 C-67.64445983 136.93825138 -67.68931445 126.06713545 -67.71866894 115.19585133 C-67.73426811 109.60795209 -67.75540055 104.02019215 -67.78955078 98.43237305 C-67.82235025 93.03124831 -67.84012857 87.63025685 -67.84786415 82.22904015 C-67.85337091 80.1771504 -67.86412339 78.12526723 -67.88042259 76.07343483 C-67.98740686 62.03657932 -67.6658174 48.99121868 -61.06323242 36.22802734 C-60.72138916 35.55956787 -60.3795459 34.8911084 -60.02734375 34.20239258 C-51.34390216 18.07380013 -36.53460422 6.73369681 -19.28471375 1.24789429 C-12.95749247 -0.30145607 -6.47320782 -0.00528926 0 0 Z " fill="#CBE4E7" transform="translate(273.563232421875,145.70947265625)"/>
<path d="M0 0 C53.79 0 107.58 0 163 0 C163 86.13 163 172.26 163 261 C153.76 261.33 144.52 261.66 135 262 C126.36028807 266.31985596 124.40279879 267.49300302 121 276 C120.67 280.62 120.34 285.24 120 290 C80.4 290 40.8 290 0 290 C0 223.01 0 156.02 0 87 C20.13 87 40.26 87 61 87 C61.20634616 74.21862632 61.20634616 74.21862632 57.5625 69.1875 C53.94142934 66.09634212 52.32099237 65.89205878 47.65234375 65.9296875 C46.57146484 65.919375 45.49058594 65.9090625 44.37695312 65.8984375 C42.11136726 65.8829991 39.84549581 65.89024613 37.58007812 65.921875 C29.18668179 65.78289505 25.00914192 63.74009811 19 58 C17.83558578 57.02127154 16.6654559 56.04928049 15.48828125 55.0859375 C14.42807579 54.18418316 13.36944349 53.28057549 12.3125 52.375 C11.24628322 51.46592357 10.17987791 50.5570682 9.11328125 49.6484375 C8.65735596 49.25833496 8.20143066 48.86823242 7.73168945 48.46630859 C5.16764547 46.29520354 2.58104273 44.15086894 0 42 C0 28.14 0 14.28 0 0 Z " fill="#DB8758" transform="translate(36,36)"/>
<path d="M0 0 C1.46248421 -0.01441132 1.46248421 -0.01441132 2.95451355 -0.02911377 C4.00762222 -0.03336365 5.0607309 -0.03761353 6.14575195 -0.04199219 C7.77562798 -0.0505423 7.77562798 -0.0505423 9.43843079 -0.05926514 C11.74084499 -0.06871737 14.04327274 -0.07525 16.34570312 -0.07910156 C19.85286401 -0.08878116 23.3594324 -0.11979239 26.86645508 -0.15136719 C29.1053839 -0.15790002 31.3443169 -0.16314939 33.58325195 -0.16699219 C34.62623947 -0.17933899 35.66922699 -0.19168579 36.74382019 -0.20440674 C43.57864379 -0.18370326 49.7089513 0.31989813 55.2199707 4.80957031 C55.88899414 5.66421875 55.88899414 5.66421875 56.5715332 6.53613281 C57.26375977 7.38304687 57.26375977 7.38304687 57.9699707 8.24707031 C61.40493456 13.60736423 61.48572445 18.35281566 61.46777344 24.5378418 C61.47300018 25.47503052 61.47822693 26.41221924 61.48361206 27.37780762 C61.49383735 29.40865343 61.4996299 31.43952534 61.50149345 33.47039604 C61.50515981 36.68604112 61.52189367 39.90137855 61.54225159 43.11695862 C61.59764097 52.25800864 61.62835852 61.39910366 61.65283203 70.5402832 C61.66871351 76.13526876 61.6989374 81.73003526 61.73759651 87.3249073 C61.74923967 89.45510596 61.7551768 91.58534379 61.75527763 93.71557426 C61.75546986 96.69562513 61.77374868 99.67507228 61.79589844 102.6550293 C61.79132126 103.53262405 61.78674408 104.41021881 61.7820282 105.31440735 C61.84082716 110.29482695 62.19123734 113.98762365 65.1965332 118.16113281 C70.18224431 121.52770089 73.39582448 122.661315 79.52772522 122.66233826 C80.2318438 122.66787265 80.93596239 122.67340705 81.6614179 122.67910916 C84.00299878 122.69264044 86.34349973 122.67778876 88.68505859 122.6628418 C90.37092031 122.6666277 92.05677892 122.67212998 93.74263 122.67921448 C98.30872131 122.69314994 102.87443501 122.68201325 107.44050527 122.66550326 C112.22364027 122.65163047 117.00675386 122.6581153 121.78990173 122.66163635 C129.82044546 122.66433645 137.85083954 122.65087922 145.88134766 122.62768555 C155.16147356 122.60106803 164.44134945 122.59933234 173.72150046 122.61107391 C182.65587754 122.62185776 191.59016431 122.61566044 200.52453423 122.60151863 C204.32384823 122.59576501 208.12309601 122.59583658 211.92241096 122.60058403 C216.39667992 122.60536087 220.87067552 122.59522289 225.3448925 122.57362938 C226.98556471 122.5680713 228.62626324 122.56758723 230.26693726 122.57258224 C232.50903509 122.57855163 234.75030177 122.56599933 236.99232483 122.54881287 C238.24608949 122.54638297 239.49985415 122.54395308 240.79161167 122.54144955 C245.31654126 122.03603219 248.64482824 120.75018794 251.85582733 117.4618988 C255.26552906 112.03511058 255.89602275 107.72386794 255.77661133 101.38378906 C255.78028969 99.96753738 255.78028969 99.96753738 255.78404236 98.52267456 C255.786205 96.48530306 255.77700902 94.44789376 255.7575531 92.41061401 C255.72738776 89.18129943 255.72854023 85.95330491 255.7376709 82.72387695 C255.75156301 75.86946042 255.72687915 69.01547771 255.6965332 62.16113281 C255.6613524 54.21472202 255.64219027 46.26895428 255.66465759 38.32247925 C255.66527339 35.14919148 255.6361381 31.97707588 255.60583496 28.80395508 C255.60791034 26.84879347 255.61137705 24.89363268 255.61645508 22.93847656 C255.59173378 21.62591385 255.59173378 21.62591385 255.56651306 20.28683472 C255.62740187 14.06309308 257.22168273 9.97226168 261.1965332 5.16113281 C267.25978524 -0.35649515 274.34080833 -0.56514789 282.16918945 -0.46777344 C283.85291908 -0.47139137 283.85291908 -0.47139137 285.57066345 -0.4750824 C287.93142244 -0.47410761 290.29220534 -0.46080278 292.65283203 -0.43579102 C296.25217795 -0.40143263 299.84907196 -0.41516712 303.44848633 -0.43457031 C305.75123108 -0.4276723 308.05396954 -0.41800033 310.35668945 -0.40527344 C311.95855858 -0.41271324 311.95855858 -0.41271324 313.5927887 -0.42030334 C320.63103605 -0.31010242 326.50092338 0.63820453 331.75160217 5.64353943 C335.50307455 9.93140375 336.32009259 13.157042 336.34370422 18.70707703 C336.35443718 20.43765099 336.35443718 20.43765099 336.36538696 22.20318604 C336.36807587 23.47023376 336.37076477 24.73728149 336.37353516 26.04272461 C336.37980132 27.38977737 336.38644826 28.73682841 336.39344788 30.08387756 C336.41447595 34.50935668 336.42485042 38.93483609 336.43481445 43.36035156 C336.43886275 44.88535899 336.4429797 46.41036624 336.44716454 47.93537331 C336.466215 55.10186482 336.48044523 62.26834606 336.4887765 69.43485802 C336.49854288 77.69883298 336.52484712 85.96253965 336.5652774 94.2264201 C336.5954752 100.61891169 336.61024892 107.01132654 336.61355752 113.40388805 C336.61590423 117.21936342 336.62481451 121.03455214 336.65001869 124.84995079 C336.67336834 128.4426905 336.67750538 132.03495626 336.66725731 135.6277523 C336.66652904 137.56568853 336.68557267 139.50360105 336.70532227 141.44143677 C336.65794827 149.40882173 335.80747533 154.97664059 330.45043945 161.18457031 C329.89227539 161.63058594 329.33411133 162.07660156 328.7590332 162.53613281 C328.20344727 162.99761719 327.64786133 163.45910156 327.07543945 163.93457031 C322.85947512 166.68677988 319.20789354 167.40957547 314.21289062 167.38818359 C312.44162056 167.387957 312.44162056 167.387957 310.63456726 167.38772583 C308.73744743 167.37224197 308.73744743 167.37224197 306.80200195 167.35644531 C304.84826408 167.35220047 304.84826408 167.35220047 302.85505676 167.34786987 C299.40430936 167.34025978 295.95373222 167.32063416 292.50305176 167.29846191 C288.97707421 167.27794669 285.45106895 167.26885606 281.92504883 167.25878906 C275.01547399 167.23738554 268.10601179 167.20328155 261.1965332 167.16113281 C261.57575928 168.49905884 261.57575928 168.49905884 261.96264648 169.86401367 C262.89997758 173.2089268 263.81819574 176.55794621 264.72436523 179.91137695 C265.11863673 181.35548092 265.52019458 182.79761768 265.92944336 184.23754883 C270.17168015 199.19947198 270.17168015 199.19947198 267.1965332 207.16113281 C265.27910783 210.35495468 263.12061423 212.61167923 259.8840332 214.53613281 C254.80509981 215.71728011 250.79237251 215.74422794 245.9465332 213.97363281 C240.22132546 210.20020044 238.37769853 205.54794745 236.7590332 199.09863281 C236.45316284 197.93944336 236.45316284 197.93944336 236.14111328 196.75683594 C235.47892195 194.22833124 234.83678716 191.69527497 234.1965332 189.16113281 C233.72011929 187.30823002 233.24355486 185.45536592 232.7668457 183.60253906 C231.8748561 180.10319522 230.985483 176.60326956 230.11450195 173.09863281 C229.93685303 172.38578125 229.7592041 171.67292969 229.57617188 170.93847656 C229.1965332 169.16113281 229.1965332 169.16113281 229.1965332 167.16113281 C187.2865332 167.16113281 145.3765332 167.16113281 102.1965332 167.16113281 C101.5365332 170.46113281 100.8765332 173.76113281 100.1965332 177.16113281 C99.0078231 181.94053601 97.66327562 186.6726373 96.3215332 191.41113281 C95.81299805 193.27125 95.81299805 193.27125 95.29418945 195.16894531 C91.08615536 210.04906586 91.08615536 210.04906586 84.9465332 213.53613281 C80.84833703 215.63349659 77.75915787 215.66809111 73.1965332 215.16113281 C68.31822972 213.43937864 64.7146393 210.72195595 62.1965332 206.16113281 C60.28229674 197.68756314 62.4725101 190.34960808 64.6340332 182.09863281 C64.97723025 180.74286669 65.31903869 179.38674826 65.65942383 178.03027344 C66.49157124 174.73684496 67.33756135 171.44764764 68.1965332 168.16113281 C67.34177399 168.15970779 66.48701477 168.15828278 65.60635376 168.15681458 C57.51531991 168.13891807 49.42482832 168.09710863 41.33405495 168.02904224 C37.17534934 167.9948829 33.01700678 167.96967963 28.8581543 167.96557617 C24.83776048 167.96126926 20.81818406 167.93261111 16.79804611 167.88770103 C15.27126213 167.87480185 13.74437995 167.87039124 12.21754837 167.87497902 C2.52381171 167.89730366 -5.68746684 167.26779157 -13.40365601 160.82502747 C-20.1966426 153.64302648 -20.20879208 144.49169622 -19.9753418 135.20410156 C-19.77595646 129.83986919 -19.36959499 124.49891296 -18.8034668 119.16113281 C-16.88725942 118.74235901 -14.97045182 118.32633233 -13.0534668 117.91113281 C-11.79276367 117.63527344 -10.53206055 117.35941406 -9.2331543 117.07519531 C-6.01982572 116.39179103 -2.79908409 115.80262807 0.4387207 115.24707031 C1.32978516 115.08754883 2.22084961 114.92802734 3.13891602 114.76367188 C4.90361742 114.44953318 6.67128028 114.15152882 8.44165039 113.87109375 C12.23964275 113.179055 14.66790394 112.57463116 17.7434082 110.16894531 C21.11812189 103.18365085 20.31654264 93.7070097 19.1965332 86.16113281 C17.7425933 82.29459163 16.11878247 80.07318226 13.1965332 77.16113281 C12.10240167 75.97366305 11.01301896 74.78180958 9.92700195 73.58691406 C7.4866293 70.92075825 5.01964663 68.28404692 2.5246582 65.66894531 C-0.43094726 62.56800898 -3.3124205 59.43162823 -6.0065918 56.09863281 C-7.85373374 53.988482 -7.85373374 53.988482 -10.6628418 52.03613281 C-15.36851608 48.29277936 -18.32336187 44.9885113 -19.3581543 38.89453125 C-21.25938737 14.49323247 -21.25938737 14.49323247 -14.8034668 6.16113281 C-12.98706055 4.41894531 -12.98706055 4.41894531 -11.2409668 3.28613281 C-10.66217773 2.89683594 -10.08338867 2.50753906 -9.48706055 2.10644531 C-6.28307001 0.30745295 -3.59303699 0.02861179 0 0 Z " fill="#E9F2F4" transform="translate(175.803466796875,296.8388671875)"/>
<path d="M0 0 C3.92223133 -0.00217646 7.84417584 -0.0203779 11.76635742 -0.03930664 C35.14890885 -0.09381676 58.48119196 0.68827959 81.53588867 4.84472656 C83.87264339 5.26590364 86.21247957 5.66532868 88.5534668 6.06225586 C90.05887501 6.32216849 91.56409313 6.5831853 93.0690918 6.84545898 C93.76041199 6.96526627 94.45173218 7.08507355 95.16400146 7.20851135 C99.90409431 8.06718024 99.90409431 8.06718024 101.0222168 9.18530273 C101.13626991 10.71824989 101.18178481 12.25637176 101.19921875 13.79345703 C101.2184716 15.26585091 101.2184716 15.26585091 101.2381134 16.76799011 C101.24550034 17.83769547 101.25288727 18.90740082 101.26049805 20.00952148 C101.26856979 21.10367874 101.27664154 22.197836 101.28495789 23.32514954 C101.29882053 25.64790248 101.30953287 27.97067598 101.31738281 30.29345703 C101.33456028 33.84048406 101.37842387 37.38657085 101.42260742 40.93334961 C101.43273692 43.18790003 101.44125222 45.4424584 101.44799805 47.69702148 C101.46550613 48.75660568 101.48301422 49.81618988 101.50105286 50.90788269 C101.48317505 57.00261352 101.09357885 60.54656935 97.0222168 65.18530273 C92.61788415 69.05577688 88.92777919 69.31371141 83.1855011 69.33920288 C82.48621134 69.34358513 81.78692159 69.34796739 81.06644124 69.35248244 C78.71746851 69.36586307 76.3685333 69.37204765 74.01953125 69.37817383 C72.33750743 69.38607542 70.65548531 69.39434441 68.97346497 69.4029541 C63.44415912 69.42916922 57.91484572 69.44448198 52.38549805 69.45874023 C50.48159467 69.46410027 48.57769135 69.46947778 46.67378807 69.47487259 C38.75329018 69.49650123 30.83279431 69.51523741 22.91227436 69.52649498 C11.56413958 69.54273067 0.21634738 69.57589939 -11.13165826 69.63289583 C-19.11224487 69.67161118 -27.09273991 69.69112961 -35.07341796 69.69641554 C-39.83908097 69.70006702 -44.60437854 69.71206654 -49.3699398 69.74451828 C-53.85571324 69.77462673 -58.34090065 69.78090093 -62.82675362 69.76913452 C-64.46983908 69.76891401 -66.11295196 69.77720032 -67.7559433 69.79478836 C-84.07072914 69.95987779 -84.07072914 69.95987779 -89.9777832 64.18530273 C-93.94895297 58.96314355 -93.3642137 53.16325037 -93.27075195 46.88061523 C-93.26650711 45.80149872 -93.26226227 44.7223822 -93.25788879 43.61056519 C-93.24114741 40.17688649 -93.20350265 36.74380291 -93.1652832 33.31030273 C-93.15023054 30.9769779 -93.13654315 28.64364383 -93.12426758 26.31030273 C-93.09125874 20.60176766 -93.04110425 14.89357773 -92.9777832 9.18530273 C-82.93796388 5.72674255 -72.60270361 4.48716986 -62.1027832 3.12280273 C-60.83692383 2.94942383 -59.57106445 2.77604492 -58.2668457 2.59741211 C-38.90792203 0.07107257 -19.49893559 -0.00120446 0 0 Z " fill="#8EBAC5" transform="translate(329.977783203125,350.814697265625)"/>
<path d="M0 0 C6.6 0 13.2 0 20 0 C20.00331015 1.6197385 20.00662029 3.23947701 20.01003075 4.90829849 C20.08900033 43.33327993 20.1782019 81.75822593 20.28005161 120.18315382 C20.2925709 124.90970001 20.30500361 129.63624642 20.31738281 134.36279297 C20.3210818 135.77428459 20.3210818 135.77428459 20.32485552 137.21429119 C20.36460975 152.46288187 20.39734528 167.71147999 20.42749982 182.96009234 C20.45858292 198.59950567 20.49717879 214.23888736 20.54279006 229.87826514 C20.57071035 239.53330731 20.592728 249.18832626 20.60726251 258.843398 C20.61778176 265.45878447 20.63557982 272.07412604 20.65916704 278.68947873 C20.67257093 282.50963969 20.68270295 286.32973757 20.68421364 290.14992332 C20.68593318 294.28681934 20.70294786 298.4235092 20.7215271 302.56036377 C20.71959237 303.77436112 20.71765763 304.98835846 20.71566427 306.23914361 C20.72312976 307.34437741 20.73059525 308.44961121 20.73828697 309.58833694 C20.74056529 310.5437133 20.74284362 311.49908965 20.74519098 312.4834168 C21.01422625 315.14050345 21.56129094 316.76237748 23 319 C25.55912628 320.27956314 27.3853272 320.13918149 30.2517395 320.15821838 C31.36515717 320.1680072 32.47857483 320.17779602 33.62573242 320.18788147 C35.46639282 320.19651466 35.46639282 320.19651466 37.34423828 320.20532227 C38.63200165 320.21522186 39.91976501 320.22512146 41.24655151 320.23532104 C44.78349039 320.26239927 48.32044266 320.283393 51.85742807 320.30332303 C55.55169531 320.32516462 59.24592116 320.35256223 62.94015503 320.37937927 C69.93826094 320.42933092 76.93638979 320.47426056 83.93454063 320.51740164 C91.9006054 320.56675291 99.86662865 320.62167885 107.83265328 320.67708123 C124.2217306 320.79093921 140.61084595 320.89776992 157 321 C157.26264648 321.68852051 157.52529297 322.37704102 157.79589844 323.08642578 C158.1468457 323.9886084 158.49779297 324.89079102 158.859375 325.8203125 C159.37709473 327.16246826 159.37709473 327.16246826 159.90527344 328.53173828 C162.33710568 334.01474986 166.62789826 336.7456548 171.86328125 339.21875 C175.23448082 340.4513641 178.42768525 340.74483466 182 341 C184.24827966 347.42701933 186.12374486 353.88912851 187.75 360.5 C187.98332031 361.38558594 188.21664062 362.27117187 188.45703125 363.18359375 C190.05981709 369.71950486 191.02086801 376.16930399 187.765625 382.33984375 C183.40063099 386.94108744 180.58888637 388.74946261 174.125 389.375 C169.74214005 389.24268725 166.28394558 387.92427535 163 385 C159.45522617 380.34593506 157.95114503 376.1886343 156.640625 370.609375 C156.34946808 369.43063812 156.34946808 369.43063812 156.0524292 368.22808838 C155.4404993 365.73795535 154.84533631 363.24414579 154.25 360.75 C153.83567107 359.05964164 153.42031644 357.36953435 153.00390625 355.6796875 C150 343.39387311 150 343.39387311 150 341 C128.55 341.33 107.1 341.66 85 342 C81.87676457 353.90326632 81.87676457 353.90326632 78.77832031 365.81298828 C78.37914434 367.31566616 77.97913399 368.81812275 77.578125 370.3203125 C77.3826709 371.08851318 77.1872168 371.85671387 76.98583984 372.64819336 C75.5211618 378.07519254 73.66451105 382.62731635 69.359375 386.4609375 C64.68105446 389.11804188 61.37546332 389.5972737 56 389 C51.12169651 387.27824583 47.5181061 384.56082313 45 380 C43.08576354 371.52643033 45.2759769 364.18847527 47.4375 355.9375 C47.78069704 354.58173388 48.12250548 353.22561545 48.46289062 351.86914062 C49.29503803 348.57571215 50.14102815 345.28651483 51 342 C49.38158203 341.99383667 49.38158203 341.99383667 47.73046875 341.98754883 C43.69695377 341.96564608 39.66439893 341.91124295 35.63134766 341.84741211 C33.89153298 341.82432865 32.15158047 341.80985919 30.41162109 341.80444336 C27.89855011 341.79508235 25.38761798 341.75394133 22.875 341.70703125 C21.72294067 341.71293022 21.72294067 341.71293022 20.54760742 341.71894836 C14.6120936 341.5614266 10.64420033 339.66863819 6 336 C1.68845123 331.3480658 -0.25096197 327.7563358 -0.24609566 321.4009285 C-0.25007775 320.25389395 -0.25405985 319.1068594 -0.25816262 317.92506623 C-0.25233693 316.66437751 -0.24651125 315.40368878 -0.24050903 314.10479736 C-0.24138103 312.7525346 -0.2431319 311.40027217 -0.24568737 310.04801154 C-0.2501661 306.32869115 -0.24215002 302.60948562 -0.23213124 298.89017987 C-0.22350661 294.88066944 -0.2264162 290.87116566 -0.22793579 286.86164856 C-0.22898527 279.91375439 -0.22270212 272.96589773 -0.21146011 266.018013 C-0.19521657 255.97250245 -0.18999828 245.92701007 -0.18748413 235.88148782 C-0.18310523 219.58390477 -0.16979082 203.28634172 -0.15087891 186.98876953 C-0.13252516 171.15576274 -0.11836618 155.32276138 -0.10986328 139.48974609 C-0.10933783 138.51404943 -0.10881239 137.53835277 -0.10827102 136.53308955 C-0.10566097 131.63838082 -0.10313355 126.74367205 -0.10064721 121.84896326 C-0.07990863 81.23262812 -0.04452927 40.61631552 0 0 Z " fill="#DC8758" transform="translate(0,123)"/>
<path d="M0 0 C39.6 0 79.2 0 120 0 C120 28.38 120 56.76 120 86 C80.4 86 40.8 86 0 86 C0 57.62 0 29.24 0 0 Z " fill="#DB8657" transform="translate(36,342)"/>
<path d="M0 0 C0.82465732 -0.00694553 1.64931463 -0.01389106 2.49896157 -0.02104706 C5.24260009 -0.03923917 7.98536626 -0.02907469 10.72903442 -0.01878357 C12.70411828 -0.02584604 14.67919673 -0.03459243 16.65426636 -0.04489136 C22.00562205 -0.06735958 27.35668161 -0.06445133 32.70806646 -0.05556989 C37.18113647 -0.05045285 41.65415119 -0.05775848 46.1272155 -0.06504196 C56.68301438 -0.08203324 67.23866867 -0.07848331 77.79446411 -0.06175232 C88.67135741 -0.04483489 99.54784926 -0.06066227 110.42469871 -0.0929752 C119.77528753 -0.11969788 129.12575159 -0.12693975 138.47637475 -0.11846012 C144.05574015 -0.11353837 149.63486411 -0.11570586 155.21419907 -0.13624763 C160.46257908 -0.15464643 165.71038325 -0.14859446 170.9587326 -0.12404823 C172.87992951 -0.11905353 174.8011706 -0.12249511 176.722332 -0.13519669 C196.02354625 -0.2526653 196.02354625 -0.2526653 203.43655396 5.5146637 C211.08661132 13.3676835 210.7561981 23.46358642 210.85403442 33.82447815 C210.87360199 35.14421631 210.89316956 36.46395447 210.91333008 37.82368469 C210.97566521 42.17498805 211.01656918 46.52636303 211.05374146 50.87794495 C211.0603361 51.62101387 211.06693074 52.36408279 211.07372522 53.12966895 C211.13524227 60.14955147 211.1885939 67.16945312 211.22256279 74.18952656 C211.266372 83.13390648 211.35038274 92.07588587 211.48943794 101.01930648 C211.58417549 107.32870249 211.63246182 113.63745349 211.64695656 119.94753808 C211.65682758 123.70762928 211.68655608 127.46500349 211.76644516 131.22431374 C212.26675157 155.89043257 212.26675157 155.89043257 207.80599976 161.70030212 C205.02575625 164.53864357 201.83386021 166.46851093 198.43655396 168.5146637 C196.64068875 170.55920837 195.14598732 172.61481152 193.62014771 174.8584137 C192.37095476 176.60645927 190.9689183 178.01404325 189.43655396 179.5146637 C189.43600919 178.73075162 189.43546442 177.94683954 189.43490314 177.13917255 C189.41993857 158.06850905 189.37750492 138.99808801 189.30446339 119.92755604 C189.26980406 110.70518153 189.24445663 101.48295664 189.24099731 92.26051331 C189.23795872 84.22260187 189.21748253 76.18495683 189.17602938 68.14714831 C189.15468797 63.89075399 189.14210451 59.6347385 189.15040016 55.37829018 C189.15793327 51.37176483 189.14214869 47.36600752 189.1084938 43.35962296 C189.10025145 41.88948136 189.10052141 40.41926352 189.10995674 38.9491291 C189.12156938 36.94089 189.09951035 34.93254055 189.07579041 32.92440796 C189.07302503 31.80074231 189.07025965 30.67707666 189.06741047 29.51936054 C188.20641541 25.41854032 186.80123926 23.9728121 183.43655396 21.5146637 C180.73194101 21.02268254 178.656132 20.84023063 175.95950317 20.88647461 C174.84357694 20.87583303 174.84357694 20.87583303 173.70510674 20.86497647 C171.2166233 20.84739879 168.72970235 20.86549858 166.24124146 20.88356018 C164.45552866 20.87842124 162.66982093 20.87114015 160.88412476 20.86187744 C156.03694147 20.84335195 151.19030774 20.85630925 146.34314728 20.87596774 C141.27124892 20.89234606 136.19938559 20.88354248 131.12747192 20.87844849 C122.6099672 20.87392662 114.09268201 20.88980318 105.57522583 20.91773987 C95.72703688 20.94979216 85.87924391 20.94977632 76.03102684 20.9325251 C66.55842497 20.91666286 57.08596832 20.92339163 47.6133728 20.94046211 C43.58155453 20.94733579 39.54985254 20.9462969 35.51803589 20.93891716 C30.77041076 20.93125759 26.02323642 20.94336972 21.27568817 20.97076607 C19.53301074 20.97765443 17.79029125 20.97774303 16.04761505 20.97055054 C13.66910808 20.96186478 11.29199511 20.97779534 8.91360474 21 C8.22342695 20.99175923 7.53324917 20.98351847 6.82215691 20.97502798 C2.12844491 21.05594346 -0.28043911 22.1809158 -3.56344604 25.5146637 C-4.3113835 27.70720888 -4.3113835 27.70720888 -4.22286987 30.09962463 C-4.24251297 31.00025635 -4.26215607 31.90088806 -4.28239441 32.82881165 C-4.27649544 34.27432404 -4.27649544 34.27432404 -4.27047729 35.7490387 C-4.2855986 36.74220093 -4.30071991 37.73536316 -4.31629944 38.75862122 C-4.35925182 41.92753164 -4.36802191 45.0954909 -4.37594604 48.2646637 C-4.39908442 50.4144287 -4.42444837 52.56417099 -4.45211792 54.71388245 C-4.51504425 59.98081847 -4.54991887 65.24738167 -4.56344604 70.5146637 C-6.95935642 70.54178721 -9.35495561 70.5615619 -11.75094604 70.5771637 C-12.4244812 70.5855426 -13.09801636 70.59392151 -13.79196167 70.60255432 C-17.5348278 70.6208122 -20.9158559 70.31025128 -24.56344604 69.5146637 C-24.63959294 61.93416284 -24.69208684 54.35376086 -24.72824097 46.77296448 C-24.7433151 44.19480198 -24.76377772 41.61666507 -24.7897644 39.03858948 C-24.82620691 35.33002908 -24.84318656 31.62180816 -24.85641479 27.9131012 C-24.87964058 26.18777664 -24.87964058 26.18777664 -24.90333557 24.42759705 C-24.9048649 17.1338998 -24.15665922 12.62651951 -19.37594604 6.8896637 C-13.34139934 1.79382426 -7.82800325 -0.08534624 0 0 Z " fill="#D98352" transform="translate(24.563446044921875,-0.5146636962890625)"/>
<path d="M0 0 C5.45852509 -0.09998003 10.91650004 -0.17198513 16.37573242 -0.21972656 C18.22706403 -0.23965928 20.07833421 -0.26681568 21.92944336 -0.30175781 C41.59114581 -0.66320571 58.06139586 3.216868 73 17 C79.64012476 23.91317661 84.50841865 32.09288488 88 41 C88.26288818 41.65233612 88.52577637 42.30467224 88.79663086 42.97677612 C92.21803465 53.21760629 91.37279154 64.07583221 91.29296875 74.73046875 C91.28736562 76.93434865 91.28309891 79.13823232 91.28010559 81.34211731 C91.26871333 87.11083498 91.23929496 92.87932197 91.20599365 98.64794922 C91.17517106 104.54716879 91.16157431 110.44642604 91.14648438 116.34570312 C91.11441952 127.89723614 91.06329181 139.4485988 91 151 C89.97737061 151.04753418 88.95474121 151.09506836 87.90112305 151.14404297 C86.54212884 151.21794598 85.18316205 151.29235425 83.82421875 151.3671875 C83.15225464 151.39707764 82.48029053 151.42696777 81.78796387 151.45776367 C76.06817234 151.78939638 71.21608386 152.99067505 67 157 C63.03618323 162.71020454 62.41536762 166.92846589 62.45410156 173.79077148 C62.44376389 174.74764359 62.43342621 175.70451569 62.42277527 176.69038391 C62.39341997 179.83412712 62.39184961 182.97722445 62.390625 186.12109375 C62.37563849 188.30828575 62.35891035 190.49546646 62.34051514 192.68263245 C62.29688265 198.42500335 62.27685146 204.16722158 62.26177979 209.909729 C62.24219406 215.77519746 62.20022561 221.64050141 62.16015625 227.50585938 C62.08489841 239.00385546 62.03458 250.50181464 62 262 C61.67 262 61.34 262 61 262 C60.67 246.16 60.34 230.32 60 214 C57.69 213.67 55.38 213.34 53 213 C53.00414807 211.78742712 53.00414807 211.78742712 53.00837994 210.55035782 C53.07475209 190.84315122 53.12433513 171.13596399 53.15543652 151.42866898 C53.17087827 141.89820582 53.19191611 132.36781747 53.22631836 122.83740234 C53.25630336 114.52670163 53.27559455 106.21605512 53.28226548 97.90530181 C53.28616238 93.50843705 53.29526399 89.11172729 53.31719017 84.71491241 C53.33769941 80.56825833 53.34380493 76.42182168 53.33932304 72.27512169 C53.34014184 70.76112114 53.34602095 69.24711257 53.35761642 67.7331562 C53.49174989 49.30089324 48.78448765 33.65274339 36.5859375 19.5390625 C26.18686949 9.32849723 14.06479842 4.1413763 0 1 C0 0.67 0 0.34 0 0 Z " fill="#A8D3D8" transform="translate(370,146)"/>
<path d="M0 0 C0.33 0 0.66 0 1 0 C1 66.99 1 133.98 1 203 C40.6 203 80.2 203 121 203 C121 198.38 121 193.76 121 189 C121.33 189 121.66 189 122 189 C121.98839844 189.77601563 121.97679687 190.55203125 121.96484375 191.3515625 C121.93518553 194.90207545 121.96709149 198.44953784 122 202 C121.97099609 203.83111328 121.97099609 203.83111328 121.94140625 205.69921875 C122.04366457 212.00514828 122.25316209 216.0642364 126.85546875 220.640625 C128.22795921 221.77145405 129.60913967 222.89184299 131 224 C132.13075415 225.22600126 133.23930217 226.47331271 134.3125 227.75 C137.30681173 231.23080173 140.38906364 234.62364332 143.5 238 C145.33440548 239.99901965 147.16715451 241.99954917 149 244 C150.03253906 245.12148438 150.03253906 245.12148438 151.0859375 246.265625 C151.97152344 247.24789062 151.97152344 247.24789062 152.875 248.25 C153.36742187 248.79140625 153.85984375 249.3328125 154.3671875 249.890625 C154.90601563 250.58671875 155.44484375 251.2828125 156 252 C156.42361816 252.54124512 156.84723633 253.08249023 157.28369141 253.64013672 C161.26162734 259.23415335 161.76894042 263.86939626 161.625 270.625 C161.64433594 271.54023438 161.66367188 272.45546875 161.68359375 273.3984375 C161.6534997 277.56345469 161.49112364 281.02569892 159.05078125 284.5078125 C155.02192269 287.79899274 151.61912518 288.46781221 146.5625 289.25 C145.24137207 289.48348145 145.24137207 289.48348145 143.89355469 289.72167969 C141.26616717 290.17724633 138.63569103 290.59552027 136 291 C135.24122559 291.11859375 134.48245117 291.2371875 133.70068359 291.359375 C129.80540372 291.9604377 125.9090012 292.49013028 122 293 C122 296.96 122 300.92 122 305 C121.67 305 121.34 305 121 305 C121 276.62 121 248.24 121 219 C81.4 219 41.8 219 1 219 C1 247.38 1 275.76 1 305 C0.67 305 0.34 305 0 305 C0 204.35 0 103.7 0 0 Z " fill="#E39D75" transform="translate(35,123)"/>
<path d="M0 0 C6.6 0 13.2 0 20 0 C20 72.27 20 144.54 20 219 C13.4 219 6.8 219 0 219 C0 146.73 0 74.46 0 0 Z " fill="#DC8758" transform="translate(0,123)"/>
<path d="M0 0 C0.97829269 -0.01929062 1.95658539 -0.03858124 2.96452332 -0.05845642 C7.45059577 -0.11619527 11.93650647 -0.16549463 16.42285156 -0.19628906 C18.78660707 -0.21785588 21.150283 -0.25194262 23.51367188 -0.29882812 C26.92394642 -0.36587403 30.33256724 -0.39329906 33.7434082 -0.41235352 C34.79469406 -0.44018417 35.84597992 -0.46801483 36.92912292 -0.49668884 C41.67984691 -0.48342908 45.47549298 -0.26185981 49.46459961 2.48583984 C53.07440838 6.17471411 53.13173866 9.98558747 53.18986511 14.96777344 C53.16628433 16.09916748 53.14270355 17.23056152 53.1184082 18.39624023 C53.11799026 19.57210693 53.11757233 20.74797363 53.11714172 21.95947266 C53.10877476 24.44078617 53.08334191 26.92209311 53.04199219 29.40307617 C52.98189061 33.19604553 52.98041472 36.98567565 52.98754883 40.77905273 C52.97213938 43.19313988 52.95337177 45.60720842 52.9309082 48.02124023 C52.92959396 49.15263428 52.92827972 50.28402832 52.92692566 51.44970703 C52.79733364 57.61954004 52.51251052 61.55431361 48.29418945 66.20874023 C45.52966913 67.5910004 43.24805315 67.3039941 40.16918945 67.27124023 C39.07348633 67.2622168 37.9777832 67.25319336 36.84887695 67.24389648 C35.58430664 67.22649414 35.58430664 67.22649414 34.29418945 67.20874023 C34.23811523 65.85329102 34.23811523 65.85329102 34.1809082 64.47045898 C34.11516602 63.2909668 34.04942383 62.11147461 33.98168945 60.89624023 C33.92368164 59.72448242 33.86567383 58.55272461 33.8059082 57.34545898 C33.53562289 54.26268007 33.53562289 54.26268007 31.9699707 52.31420898 C29.12103537 50.43484138 26.58602697 50.85604336 23.29418945 51.20874023 C21.48852061 52.25210078 21.48852061 52.25210078 20.29418945 54.20874023 C19.71325953 57.40120021 19.71325953 57.40120021 19.60668945 60.89624023 C19.54094727 62.07573242 19.47520508 63.25522461 19.4074707 64.47045898 C19.37008789 65.3740918 19.33270508 66.27772461 19.29418945 67.20874023 C15.23206733 67.35421568 11.17061658 67.44287249 7.10668945 67.52124023 C5.95620117 67.56313477 4.80571289 67.6050293 3.62036133 67.64819336 C-4.92363562 67.7720194 -4.92363562 67.7720194 -8.9440918 64.87670898 C-11.73807902 60.64546004 -11.82518104 57.54458413 -11.8034668 52.57202148 C-11.80024414 51.27329102 -11.79702148 49.97456055 -11.79370117 48.63647461 C-11.78534586 47.26472915 -11.77688092 45.89298436 -11.76831055 44.52124023 C-11.7632939 43.13777828 -11.75873128 41.7543146 -11.75463867 40.37084961 C-11.74283584 36.98343629 -11.72637073 33.5961099 -11.70581055 30.20874023 C-9.91723633 30.17006836 -9.91723633 30.17006836 -8.0925293 30.13061523 C-6.52608635 30.07433585 -4.95968152 30.01698847 -3.39331055 29.95874023 C-2.60762695 29.94456055 -1.82194336 29.93038086 -1.01245117 29.91577148 C3.60465172 29.80887107 3.60465172 29.80887107 7.31762695 27.32202148 C8.51939289 24.72139999 8.65775484 23.04455024 8.29418945 20.20874023 C6.57192449 16.96024046 6.57192449 16.96024046 3.29418945 16.20874023 C0.72784085 15.98155528 -1.82259162 15.7926584 -4.39331055 15.64624023 C-5.09520508 15.60305664 -5.79709961 15.55987305 -6.52026367 15.51538086 C-8.24856261 15.40956664 -9.97716164 15.30867443 -11.70581055 15.20874023 C-12.3754534 7.44088309 -12.3754534 7.44088309 -9.33081055 3.77124023 C-5.95805131 0.47878479 -4.55746214 0.0838738 0 0 Z " fill="#6C7FD8" transform="translate(352.705810546875,200.791259765625)"/>
<path d="M0 0 C23.64345981 -0.09340077 47.28689201 -0.16395836 70.93049908 -0.20724869 C81.90839997 -0.22788252 92.8861863 -0.25601889 103.86401367 -0.30175781 C113.43119644 -0.34160034 122.99829626 -0.36742683 132.56555969 -0.37635398 C137.63237483 -0.38157309 142.69895261 -0.39385706 147.76569176 -0.42292023 C152.53368264 -0.45004845 157.30133815 -0.45845022 162.06939888 -0.45243073 C163.820167 -0.45353212 165.57094621 -0.46150147 167.32164764 -0.4768219 C169.71127926 -0.49670973 172.09964293 -0.49194432 174.48930359 -0.48101807 C175.52968616 -0.49849512 175.52968616 -0.49849512 176.59108657 -0.51632524 C181.31132518 -0.45794512 183.68010986 0.67716777 187 4 C188.36976592 6.73953184 188.15642817 8.95190072 188.19186401 12.01965332 C188.20887863 13.30373077 188.22589325 14.58780823 188.24342346 15.91079712 C188.25730347 17.34222285 188.27104701 18.77364991 188.28466797 20.20507812 C188.30242684 21.70637426 188.32054768 23.20766614 188.33900452 24.70895386 C188.39766016 29.6496509 188.4454812 34.59042768 188.4921875 39.53125 C188.50869833 41.23296621 188.52521982 42.93468231 188.54175186 44.63639832 C188.60971523 51.71871605 188.6747483 58.80105078 188.73234367 65.883461 C188.81494191 76.02517854 188.91462152 86.16639317 189.03843391 96.30769396 C189.12413362 103.44147346 189.19028757 110.57527524 189.24207985 117.70938063 C189.27349861 121.96773442 189.31332251 126.22561223 189.37401962 130.48365784 C189.43076732 134.49571591 189.46315137 138.50726077 189.47743034 142.51968765 C189.48677191 143.98622472 189.50466821 145.45273826 189.53211021 146.91904831 C189.69733445 156.0759691 188.6499069 162.1377188 184 170 C179.89322437 181.12882851 180.52403401 193.15105091 180.48828125 204.83203125 C180.47140629 206.92096492 180.45325233 209.00988862 180.43388367 211.09880066 C180.38668336 216.55499145 180.35668101 222.01114177 180.33044434 227.46746826 C180.30048647 233.05196116 180.254009 238.63631497 180.20898438 244.22070312 C180.12329281 255.1470622 180.05579682 266.07345018 180 277 C177.69 277 175.38 277 173 277 C173 190.87 173 104.74 173 16 C169.7 16 166.4 16 163 16 C163 11.05 163 6.1 163 1 C109.21 1 55.42 1 0 1 C0 0.67 0 0.34 0 0 Z " fill="#FACA7E" transform="translate(26,20)"/>
<path d="M0 0 C0.33 0 0.66 0 1 0 C1 86.13 1 172.26 1 261 C0.67 261 0.34 261 0 261 C0 242.19 0 223.38 0 204 C-53.46 204 -106.92 204 -162 204 C-162 198.72 -162 193.44 -162 188 C-108.54 188 -55.08 188 0 188 C0 125.96 0 63.92 0 0 Z " fill="#E09873" transform="translate(198,36)"/>
<path d="M0 0 C50.49 0 100.98 0 153 0 C153 4.95 153 9.9 153 15 C102.51 15 52.02 15 0 15 C0 10.05 0 5.1 0 0 Z " fill="#E09873" transform="translate(36,123)"/>
<path d="M0 0 C4.59694436 3.94023802 8.51317405 7.45431358 12.5 11.875 C12.97429443 12.39892334 13.44858887 12.92284668 13.93725586 13.46264648 C17.05819018 16.91942799 20.13799904 20.41090469 23.1796875 23.9375 C24.59711124 25.54350801 26.04641912 27.12139619 27.5078125 28.6875 C28.39210937 29.63625 29.27640625 30.585 30.1875 31.5625 C31.00605469 32.43003906 31.82460937 33.29757812 32.66796875 34.19140625 C38.39544791 41.08932504 39.66819034 45.72803121 39.5625 54.5625 C39.59827148 55.94211914 39.59827148 55.94211914 39.63476562 57.34960938 C39.62574673 61.5313692 39.50866135 65.01274106 37.0546875 68.51171875 C33.02233102 71.79638765 29.61852848 72.46683386 24.5625 73.25 C23.74845703 73.39695312 22.93441406 73.54390625 22.09570312 73.6953125 C14.76130491 74.98661968 7.37013877 75.94712303 0 77 C0 51.59 0 26.18 0 0 Z " fill="#FCD79A" transform="translate(157,339)"/>
<path d="M0 0 C8.9132786 0.30895246 17.53593487 1.4738774 26.3125 3 C27.34511963 3.17821289 28.37773926 3.35642578 29.44165039 3.54003906 C36.86806916 4.86806916 36.86806916 4.86806916 38 6 C38.11405311 7.53294715 38.15956801 9.07106902 38.17700195 10.6081543 C38.19625481 12.08054817 38.19625481 12.08054817 38.21589661 13.58268738 C38.22328354 14.65239273 38.23067047 15.72209808 38.23828125 16.82421875 C38.246353 17.91837601 38.25442474 19.01253326 38.26274109 20.1398468 C38.27660373 22.46259975 38.28731608 24.78537325 38.29516602 27.1081543 C38.31234349 30.65518133 38.35620708 34.20126811 38.40039062 37.74804688 C38.41052013 40.0025973 38.41903542 42.25715566 38.42578125 44.51171875 C38.44328934 45.57130295 38.46079742 46.63088715 38.47883606 47.72257996 C38.46143396 53.6551378 38.14555627 57.39559661 34 62 C30.88943088 64.80575862 28.96257538 65.36562631 24.796875 65.29296875 C23.32734375 65.2784668 23.32734375 65.2784668 21.828125 65.26367188 C20.81234375 65.23853516 19.7965625 65.21339844 18.75 65.1875 C17.71875 65.17396484 16.6875 65.16042969 15.625 65.14648438 C13.08280208 65.11117607 10.54166777 65.06186036 8 65 C7.99635437 64.35377686 7.99270874 63.70755371 7.98895264 63.04174805 C7.94701871 56.29260791 7.87759643 49.5441409 7.79248047 42.79541016 C7.76432123 40.27952825 7.74308172 37.7635587 7.72900391 35.24755859 C7.70750544 31.62291764 7.6608163 27.99932483 7.609375 24.375 C7.60814636 23.25697998 7.60691772 22.13895996 7.60565186 20.98706055 C7.44703008 12.45615801 5.55792647 6.66951177 0 0 Z " fill="#7CA1B1" transform="translate(393,354)"/>
<path d="M0 0 C3.55960657 1.77980328 5.92865821 3.46623849 8.9375 6 C9.92363281 6.7940625 10.90976562 7.588125 11.92578125 8.40625 C14.01453965 10.1187561 15.8228356 11.8381387 17.73046875 13.78125 C25.12012691 20.72214349 30.74041511 21.74415284 40.875 21.75 C41.9573291 21.70939453 43.0396582 21.66878906 44.15478516 21.62695312 C53.04368738 21.40097576 53.04368738 21.40097576 57.1953125 24.890625 C63.21912619 30.94565016 61 33.08276806 61 44 C40.87 44 20.74 44 0 44 C0 29.48 0 14.96 0 0 Z " fill="#CCE2E4" transform="translate(36,79)"/>
<path d="M0 0 C4.02027658 -0.17528316 8.0395628 -0.28118359 12.0625 -0.375 C13.19623047 -0.42527344 14.32996094 -0.47554687 15.49804688 -0.52734375 C16.60341797 -0.54667969 17.70878906 -0.56601563 18.84765625 -0.5859375 C19.85836182 -0.6173584 20.86906738 -0.6487793 21.91040039 -0.68115234 C26.46462891 0.3229012 29.36418692 2.10200913 32 6 C32.98931441 10.07123121 32.91117994 14.01514546 32.82421875 18.1875 C32.82380081 19.3633667 32.82338287 20.5392334 32.82295227 21.75073242 C32.81458531 24.23204593 32.78915245 26.71335288 32.74780273 29.19433594 C32.68770115 32.98730529 32.68622527 36.77693542 32.69335938 40.5703125 C32.67794992 42.98439965 32.65918231 45.39846818 32.63671875 47.8125 C32.63540451 48.94389404 32.63409027 50.07528809 32.63273621 51.2409668 C32.50314419 57.41079981 32.21832107 61.34557338 28 66 C25.23547967 67.38226016 22.9538637 67.09525387 19.875 67.0625 C18.77929688 67.05347656 17.68359375 67.04445313 16.5546875 67.03515625 C15.29011719 67.01775391 15.29011719 67.01775391 14 67 C13.97421875 66.10796875 13.9484375 65.2159375 13.921875 64.296875 C13.86515625 63.12640625 13.8084375 61.9559375 13.75 60.75 C13.70359375 59.58984375 13.6571875 58.4296875 13.609375 57.234375 C12.90257419 53.48289377 11.9923903 52.29343782 9 50 C8.01 49.67 7.02 49.34 6 49 C5.99589111 47.72882324 5.99178223 46.45764648 5.98754883 45.14794922 C5.96572567 40.41756009 5.91140254 35.68799898 5.84741211 30.95800781 C5.82425993 28.91349238 5.80984294 26.86885814 5.80444336 24.82421875 C5.79513356 21.87945769 5.75409842 18.93655791 5.70703125 15.9921875 C5.7109639 15.0825827 5.71489655 14.17297791 5.71894836 13.23580933 C5.57864877 7.09017657 4.44040951 4.2951769 0 0 Z " fill="#4F66D0" transform="translate(373,201)"/>
<path d="M0 0 C1.39120471 0.00015906 2.78241534 0.00585033 4.17358398 0.01586914 C4.90463852 0.01728409 5.63569305 0.01869904 6.38890076 0.02015686 C8.73253406 0.02577131 11.07607313 0.03832617 13.41967773 0.05102539 C15.00496282 0.05603853 16.59024939 0.06060176 18.17553711 0.06469727 C22.06945383 0.07574542 25.96329979 0.09301967 29.85717773 0.11352539 C28.38811778 8.33740394 26.25701644 16.32970842 23.98217773 24.36352539 C23.6431543 25.60360352 23.30413086 26.84368164 22.95483398 28.12133789 C18.74679989 43.00145844 18.74679989 43.00145844 12.60717773 46.48852539 C8.50898156 48.58588917 5.4198024 48.62048369 0.85717773 48.11352539 C-4.02065613 46.39193697 -7.62558741 43.67454988 -10.14282227 39.11352539 C-12.04046355 30.66596097 -9.90135669 23.34605337 -7.76782227 15.11352539 C-7.43317823 13.76619401 -7.0998344 12.41853899 -6.76782227 11.07055664 C-4.02820747 0.14550738 -4.02820747 0.14550738 0 0 Z " fill="#7BA1B1" transform="translate(248.142822265625,463.886474609375)"/>
<path d="M0 0 C1.39120471 0.00015906 2.78241534 0.00585033 4.17358398 0.01586914 C4.90463852 0.01728409 5.63569305 0.01869904 6.38890076 0.02015686 C8.73253406 0.02577131 11.07607313 0.03832617 13.41967773 0.05102539 C15.00496282 0.05603853 16.59024939 0.06060176 18.17553711 0.06469727 C22.06945383 0.07574542 25.96329979 0.09301967 29.85717773 0.11352539 C28.52099808 5.41930393 27.1696588 10.72090522 25.80444336 16.01928711 C25.34262478 17.82031488 24.88488551 19.62239398 24.43139648 21.42553711 C23.77687503 24.02496331 23.10752422 26.62019029 22.43530273 29.21508789 C22.23721008 30.01532379 22.03911743 30.81555969 21.83502197 31.64004517 C20.3903762 37.13472079 18.56989233 41.69791763 14.21655273 45.57446289 C9.5382322 48.23156727 6.23264106 48.71079909 0.85717773 48.11352539 C-4.02065613 46.39193697 -7.62558741 43.67454988 -10.14282227 39.11352539 C-12.04046355 30.66596097 -9.90135669 23.34605337 -7.76782227 15.11352539 C-7.43317823 13.76619401 -7.0998344 12.41853899 -6.76782227 11.07055664 C-4.02820747 0.14550738 -4.02820747 0.14550738 0 0 Z " fill="#7BA1B1" transform="translate(55.142822265625,463.886474609375)"/>
<path d="M0 0 C10.56 0 21.12 0 32 0 C34.17628894 6.52886681 36.11381837 12.84877644 37.75 19.5 C38.09998047 20.82837891 38.09998047 20.82837891 38.45703125 22.18359375 C40.05981709 28.71950486 41.02086801 35.16930399 37.765625 41.33984375 C33.40063099 45.94108744 30.58888637 47.74946261 24.125 48.375 C19.74214005 48.24268725 16.28394558 46.92427535 13 44 C9.45522617 39.34593506 7.95114503 35.1886343 6.640625 29.609375 C6.44652039 28.82355042 6.25241577 28.03772583 6.0524292 27.22808838 C5.4404993 24.73795535 4.84533631 22.24414579 4.25 19.75 C3.83567107 18.05964164 3.42031644 16.36953435 3.00390625 14.6796875 C0 2.39387311 0 2.39387311 0 0 Z " fill="#7BA0B0" transform="translate(150,464)"/>
<path d="M0 0 C10.56 0 21.12 0 32 0 C34.041875 7.3940625 34.041875 7.3940625 36.125 14.9375 C36.56086426 16.47398193 36.99672852 18.01046387 37.44580078 19.59350586 C39.4166459 26.98056456 40.76009225 32.61383763 38 40 C36.08257463 43.19382187 33.92408103 45.45054642 30.6875 47.375 C25.60856661 48.5561473 21.5958393 48.58309513 16.75 46.8125 C11.02479226 43.03906763 9.18116532 38.38681464 7.5625 31.9375 C7.25662964 30.77831055 7.25662964 30.77831055 6.94458008 29.59570312 C6.28238875 27.06719843 5.64025396 24.53414215 5 22 C4.52358609 20.14709721 4.04702166 18.29423311 3.5703125 16.44140625 C2.67832289 12.94206241 1.7889498 9.44213675 0.91796875 5.9375 C0.74031982 5.22464844 0.5626709 4.51179688 0.37963867 3.77734375 C0 2 0 2 0 0 Z " fill="#7BA1B1" transform="translate(405,464)"/>
<path d="M0 0 C6.6 0.33 13.2 0.66 20 1 C20 18.16 20 35.32 20 53 C13.4 53 6.8 53 0 53 C0 35.51 0 18.02 0 0 Z " fill="#CCE4E7" transform="translate(0,69)"/>
<path d="M0 0 C2.97 0 5.94 0 9 0 C9 28.38 9 56.76 9 86 C6.03 86 3.06 86 0 86 C0 57.62 0 29.24 0 0 Z " fill="#D77F4A" transform="translate(189,138)"/>
<path d="M0 0 C2.97 0 5.94 0 9 0 C9 28.38 9 56.76 9 86 C6.03 86 3.06 86 0 86 C0 57.62 0 29.24 0 0 Z " fill="#D77F4A" transform="translate(189,36)"/>
<path d="M0 0 C0.89489136 0.00091644 1.78978271 0.00183289 2.71179199 0.0027771 C4.6013724 0.00881153 6.49094332 0.02455284 8.38037109 0.04931641 C11.27086683 0.08580642 14.1600793 0.09033578 17.05078125 0.08984375 C18.8880319 0.09967601 20.72527387 0.11133349 22.5625 0.125 C23.42613159 0.12722565 24.28976318 0.12945129 25.17956543 0.13174438 C25.98720337 0.14450409 26.79484131 0.15726379 27.62695312 0.17041016 C28.33436646 0.17803375 29.04177979 0.18565735 29.77062988 0.19351196 C32.16891207 0.51249907 33.73322435 1.17708502 35.78125 2.4609375 C37.78125 5.4609375 37.78125 5.4609375 37.59375 8.9609375 C36.77718441 12.47845079 36.5285373 13.36587982 33.78125 15.4609375 C31.81495667 15.84861755 31.81495667 15.84861755 29.55688477 15.86499023 C28.70912979 15.87767441 27.86137482 15.89035858 26.9879303 15.90342712 C26.07538986 15.90049149 25.16284943 15.89755585 24.22265625 15.89453125 C23.28195786 15.8997731 22.34125946 15.90501495 21.37205505 15.91041565 C19.38240547 15.91683956 17.39271792 15.91549409 15.40307617 15.90698242 C12.35852374 15.89847876 9.31585105 15.92721836 6.27148438 15.95898438 C4.33854223 15.96059662 2.40559676 15.96001841 0.47265625 15.95703125 C-0.43785995 15.96826523 -1.34837616 15.97949921 -2.28648376 15.99107361 C-8.56396114 15.92186664 -8.56396114 15.92186664 -11.79321289 13.64868164 C-13.89511516 10.42293302 -13.75608026 8.2222493 -13.21875 4.4609375 C-9.81785144 -0.65752896 -5.59030444 -0.09302398 0 0 Z " fill="#A7D2D8" transform="translate(324.21875,215.5390625)"/>
<path d="M0 0 C2.203125 1.609375 2.203125 1.609375 4 4 C4.390625 7.234375 4.390625 7.234375 4.25 10.75 C4.21390625 11.92046875 4.1778125 13.0909375 4.140625 14.296875 C4.09421875 15.18890625 4.0478125 16.0809375 4 17 C7.3 17 10.6 17 14 17 C14 17.33 14 17.66 14 18 C10.7 18 7.4 18 4 18 C4.04640625 19.46953125 4.0928125 20.9390625 4.140625 22.453125 C4.17814483 24.38539635 4.21454476 26.31768967 4.25 28.25 C4.30027344 29.70212891 4.30027344 29.70212891 4.3515625 31.18359375 C4.45024852 38.33833043 4.45024852 38.33833043 2.203125 41.640625 C-1.04486189 43.64470202 -3.26530012 43.53352855 -7 43 C-9.203125 41.640625 -9.203125 41.640625 -11 39 C-11.49560793 35.40225358 -11.37446833 31.87279942 -11.25 28.25 C-11.1675 24.8675 -11.085 21.485 -11 18 C-18.59 18 -26.18 18 -34 18 C-34 17.67 -34 17.34 -34 17 C-26.41 17 -18.82 17 -11 17 C-11.12375 13.90625 -11.12375 13.90625 -11.25 10.75 C-11.49372523 4.65686922 -11.49372523 4.65686922 -9.203125 1.609375 C-5.99934366 -0.7309759 -3.86645287 -0.55235041 0 0 Z " fill="#A6D0D8" transform="translate(383,251)"/>
<path d="M0 0 C0.33 0 0.66 0 1 0 C1 86.13 1 172.26 1 261 C0.67 261 0.34 261 0 261 C0 242.19 0 223.38 0 204 C-2.97 204 -5.94 204 -9 204 C-9 199.05 -9 194.1 -9 189 C-59.49 189 -109.98 189 -162 189 C-162 188.67 -162 188.34 -162 188 C-108.54 188 -55.08 188 0 188 C0 125.96 0 63.92 0 0 Z " fill="#E59D65" transform="translate(198,36)"/>
<path d="M0 0 C2.97 0 5.94 0 9 0 C9 18.81 9 37.62 9 57 C6.03 57 3.06 57 0 57 C0 38.19 0 19.38 0 0 Z " fill="#D77F4A" transform="translate(189,240)"/>
<path d="M0 0 C0.96486328 -0.00128906 1.92972656 -0.00257813 2.92382812 -0.00390625 C4.43299805 0.00189453 4.43299805 0.00189453 5.97265625 0.0078125 C7.47602539 0.00201172 7.47602539 0.00201172 9.00976562 -0.00390625 C9.97591797 -0.00261719 10.94207031 -0.00132812 11.9375 0 C12.81913818 0.00112793 13.70077637 0.00225586 14.60913086 0.00341797 C18.02919671 0.18583066 20.2660847 0.44330007 22.84765625 2.7578125 C24.57392321 6.21034641 23.97061173 8.45780882 23.03515625 12.1328125 C21.1398175 14.71736535 20.14689108 15.09556756 17.03515625 16.1328125 C13.41453966 16.3886043 9.78886122 16.36413191 6.16015625 16.3828125 C5.16628906 16.4034375 4.17242187 16.4240625 3.1484375 16.4453125 C-6.0844738 16.49475245 -6.0844738 16.49475245 -9.96484375 13.1328125 C-11.96484375 10.1328125 -11.96484375 10.1328125 -11.77734375 7.1328125 C-10.95036939 4.07936871 -10.47274916 2.96551261 -7.96484375 1.1328125 C-5.0150243 0.14953935 -3.07504867 0.00393912 0 0 Z " fill="#D77F4A" transform="translate(110.96484375,350.8671875)"/>
<path d="M0 0 C1.18916016 -0.03738281 2.37832031 -0.07476562 3.60351562 -0.11328125 C13.40164299 -0.2123078 13.40164299 -0.2123078 16.5078125 2.671875 C18.1875 5.375 18.1875 5.375 18.25 9 C17.06410449 12.7669622 16.52414633 13.47268744 13.1875 15.375 C10.41015625 15.76318359 10.41015625 15.76318359 7.25 15.7734375 C5.53683594 15.77923828 5.53683594 15.77923828 3.7890625 15.78515625 C2.60054687 15.77355469 1.41203125 15.76195312 0.1875 15.75 C-1.59527344 15.76740234 -1.59527344 15.76740234 -3.4140625 15.78515625 C-4.55617188 15.78128906 -5.69828125 15.77742187 -6.875 15.7734375 C-8.43927734 15.76836182 -8.43927734 15.76836182 -10.03515625 15.76318359 C-13.19068725 15.32214155 -14.55317933 14.59052018 -16.8125 12.375 C-18.00558162 8.71621638 -18.13917744 7.07502308 -16.5 3.5625 C-12.62504003 -1.46059626 -5.82504627 0.06878745 0 0 Z " fill="#D77F4A" transform="translate(116.8125,148.625)"/>
<path d="M0 0 C1.18271484 -0.00644531 2.36542969 -0.01289062 3.58398438 -0.01953125 C5.4315332 0.00947266 5.4315332 0.00947266 7.31640625 0.0390625 C9.1581543 0.01005859 9.1581543 0.01005859 11.03710938 -0.01953125 C21.0475869 0.03496237 21.0475869 0.03496237 24.22265625 2.9765625 C25.87890625 5.6640625 25.87890625 5.6640625 25.94140625 9.2890625 C24.75522708 13.05692575 24.21456497 13.75913282 20.87890625 15.6640625 C16.56875356 16.29111091 12.22975259 16.12751657 7.87890625 16.1015625 C6.69039062 16.12154297 5.501875 16.14152344 4.27734375 16.16210938 C3.13523437 16.16146484 1.993125 16.16082031 0.81640625 16.16015625 C-0.22644531 16.16200928 -1.26929687 16.1638623 -2.34375 16.16577148 C-5.81636362 15.53846655 -6.96656255 14.40605176 -9.12109375 11.6640625 C-10.12109375 8.7265625 -10.12109375 8.7265625 -10.12109375 5.6640625 C-7.27939536 1.00839543 -5.3968978 0.02822434 0 0 Z " fill="#D77F4A" transform="translate(109.12109375,47.3359375)"/>
<path d="M0 0 C1.051875 -0.00257813 2.10375 -0.00515625 3.1875 -0.0078125 C4.280625 -0.00007812 5.37375 0.00765625 6.5 0.015625 C7.593125 0.00789062 8.68625 0.00015625 9.8125 -0.0078125 C10.864375 -0.00523437 11.91625 -0.00265625 13 0 C14.43859375 0.00338379 14.43859375 0.00338379 15.90625 0.00683594 C18.63458495 0.27905309 20.21828701 0.76574897 22.5 2.265625 C24.5 5.265625 24.5 5.265625 24.3125 8.765625 C23.25696877 13.31252874 23.25696877 13.31252874 20.5 15.265625 C17.63671875 15.65380859 17.63671875 15.65380859 14.1875 15.6640625 C12.94742188 15.66792969 11.70734375 15.67179687 10.4296875 15.67578125 C8.48449219 15.65837891 8.48449219 15.65837891 6.5 15.640625 C5.20320313 15.65222656 3.90640625 15.66382813 2.5703125 15.67578125 C1.33023438 15.67191406 0.09015625 15.66804688 -1.1875 15.6640625 C-2.32574219 15.66067871 -3.46398437 15.65729492 -4.63671875 15.65380859 C-7.5 15.265625 -7.5 15.265625 -9.34375 13.92431641 C-11.08661294 11.42410298 -11.31558605 9.27771951 -11.5 6.265625 C-10.70147215 3.65226111 -10.07420473 2.62659977 -7.76171875 1.17285156 C-5.03931656 0.08083445 -2.93060288 0.00689322 0 0 Z " fill="#D77F4A" transform="translate(110.5,249.734375)"/>
<path d="M0 0 C6.6 0 13.2 0 20 0 C20 5.28 20 10.56 20 16 C13.4 16 6.8 16 0 16 C0 10.72 0 5.44 0 0 Z " fill="#E09873" transform="translate(0,326)"/>
<path d="M0 0 C6.6 0 13.2 0 20 0 C20 4.95 20 9.9 20 15 C13.4 15 6.8 15 0 15 C0 10.05 0 5.1 0 0 Z " fill="#E19974" transform="translate(0,225)"/>
<path d="M0 0 C6.6 0 13.2 0 20 0 C20 4.95 20 9.9 20 15 C13.4 15 6.8 15 0 15 C0 10.05 0 5.1 0 0 Z " fill="#E19974" transform="translate(0,123)"/>
<path d="M0 0 C2.97 0 5.94 0 9 0 C9 5.28 9 10.56 9 16 C6.03 16 3.06 16 0 16 C0 10.72 0 5.44 0 0 Z " fill="#DC8758" transform="translate(189,224)"/>
</svg>
